<svg width="2000px" height="1493px"
 viewBox="0.00 0.00 903.29 674.16" xmlns="http://www.w3.org/2000/svg" xmlns:xlink="http://www.w3.org/1999/xlink">
<g id="graph0" class="graph" transform="scale(1.0 1.0) rotate(0) translate(4 670.16)">
<title>ContextMapGraph</title>
<polygon fill="white" stroke="transparent" points="-4,4 -4,-670.16 899.29,-670.16 899.29,4 -4,4"/>
<!-- RSDemandsManagement -->
<g id="node1" class="node">
<title>RSDemandsManagement</title>
<polygon fill="none" stroke="black" stroke-width="2" points="176.45,-432.29 187.91,-431.98 199.34,-431.8 210.7,-431.73 221.94,-431.79 233.02,-431.98 243.89,-432.29 254.52,-432.72 264.87,-433.28 274.88,-433.96 284.55,-434.77 293.81,-435.69 302.66,-436.73 311.06,-437.88 318.98,-439.15 326.41,-440.52 333.32,-441.99 339.7,-443.57 345.54,-445.24 350.83,-447 355.56,-448.85 359.72,-450.78 363.32,-452.78 366.36,-454.85 368.84,-456.98 370.77,-459.16 372.16,-461.39 373.02,-463.67 373.36,-465.98 373.2,-468.31 372.55,-470.67 371.44,-473.04 369.87,-475.42 367.88,-477.79 365.47,-480.15 362.67,-482.5 359.5,-484.83 355.98,-487.13 352.13,-489.39 347.97,-491.61 343.52,-493.77 338.8,-495.88 333.82,-497.93 328.61,-499.92 323.17,-501.82 317.53,-503.65 311.69,-505.4 305.68,-507.06 299.49,-508.63 293.15,-510.1 286.66,-511.47 280.03,-512.73 273.27,-513.89 266.38,-514.95 259.38,-515.89 252.26,-516.71 245.03,-517.43 237.69,-518.02 230.26,-518.5 222.73,-518.87 215.12,-519.11 207.42,-519.24 199.64,-519.25 191.78,-519.14 183.87,-518.92 175.89,-518.59 167.87,-518.14 159.81,-517.58 151.72,-516.91 143.62,-516.14 135.52,-515.26 127.44,-514.28 119.39,-513.21 111.4,-512.03 103.47,-510.77 95.64,-509.42 87.93,-507.98 80.37,-506.46 72.97,-504.86 65.76,-503.19 58.78,-501.46 52.04,-499.65 45.59,-497.79 39.45,-495.87 33.64,-493.9 28.2,-491.89 23.16,-489.83 18.55,-487.74 14.39,-485.61 10.71,-483.46 7.54,-481.29 4.9,-479.1 2.82,-476.9 1.31,-474.69 0.39,-472.49 0.08,-470.29 0.4,-468.1 1.35,-465.93 2.95,-463.77 5.19,-461.65 8.07,-459.56 11.61,-457.5 15.79,-455.49 20.6,-453.53 26.04,-451.62 32.08,-449.77 38.72,-447.99 45.92,-446.27 53.66,-444.63 61.92,-443.07 70.67,-441.59 79.87,-440.2 89.48,-438.9 99.48,-437.7 109.81,-436.6 120.43,-435.6 131.31,-434.71 142.4,-433.93 153.65,-433.27 165.02,-432.72 176.45,-432.29"/>
<text text-anchor="middle" x="192.92" y="-472.04" font-family="sans-serif" font-size="16.00">RSDemandsManagement</text>
</g>
<!-- RSMatching -->
<g id="node2" class="node">
<title>RSMatching</title>
<polygon fill="none" stroke="black" stroke-width="2" points="189.63,-307.36 193.36,-305.01 197.29,-302.75 201.41,-300.58 205.7,-298.51 210.14,-296.55 214.72,-294.72 219.43,-293.01 224.24,-291.44 229.14,-290.01 234.12,-288.73 239.16,-287.6 244.25,-286.62 249.36,-285.8 254.49,-285.15 259.62,-284.66 264.74,-284.33 269.84,-284.17 274.9,-284.18 279.9,-284.34 284.85,-284.67 289.72,-285.15 294.52,-285.79 299.22,-286.58 303.81,-287.52 308.3,-288.59 312.67,-289.8 316.92,-291.13 321.03,-292.58 325,-294.15 328.83,-295.82 332.5,-297.59 336.02,-299.44 339.38,-301.38 342.56,-303.38 345.58,-305.45 348.41,-307.57 351.07,-309.74 353.53,-311.95 355.81,-314.19 357.9,-316.44 359.79,-318.72 361.47,-321 362.95,-323.28 364.22,-325.55 365.28,-327.81 366.13,-330.05 366.75,-332.27 367.15,-334.46 367.33,-336.61 367.28,-338.73 367,-340.81 366.49,-342.84 365.74,-344.82 364.76,-346.75 363.53,-348.63 362.07,-350.45 360.38,-352.22 358.44,-353.93 356.27,-355.58 353.85,-357.17 351.21,-358.69 348.33,-360.16 345.23,-361.56 341.9,-362.9 338.36,-364.17 334.6,-365.38 330.64,-366.53 326.48,-367.61 322.13,-368.62 317.6,-369.56 312.9,-370.43 308.05,-371.23 303.05,-371.96 297.92,-372.61 292.67,-373.19 287.32,-373.69 281.88,-374.11 276.37,-374.45 270.81,-374.71 265.21,-374.87 259.6,-374.95 253.98,-374.94 248.39,-374.83 242.83,-374.62 237.32,-374.32 231.9,-373.91 226.57,-373.4 221.36,-372.78 216.27,-372.06 211.34,-371.22 206.59,-370.28 202.01,-369.23 197.65,-368.06 193.5,-366.78 189.59,-365.4 185.93,-363.9 182.53,-362.29 179.41,-360.58 176.58,-358.76 174.04,-356.85 171.81,-354.83 169.9,-352.73 168.3,-350.54 167.03,-348.26 166.09,-345.91 165.47,-343.5 165.19,-341.02 165.24,-338.49 165.62,-335.91 166.32,-333.3 167.34,-330.67 168.68,-328.01 170.32,-325.35 172.27,-322.69 174.5,-320.04 177.02,-317.42 179.8,-314.83 182.84,-312.28 186.12,-309.79 189.63,-307.36"/>
<text text-anchor="middle" x="270.92" y="-329.09" font-family="sans-serif" font-size="16.00">RSMatching</text>
</g>
<!-- RSDemandsManagement&#45;&gt;RSMatching -->
<g id="edge1" class="edge">
<title>RSDemandsManagement&#45;&gt;RSMatching</title>
<path fill="none" stroke="black" stroke-width="2" d="M216.95,-431.4C226.89,-413.44 238.36,-392.73 248.16,-375.02"/>
<text text-anchor="middle" x="310.42" y="-403.15" font-family="sans-serif" font-size="12.00"> &#160;&#160;&#160;&#160;&#160;&#160;&#160;&#160;&#160;&#160;&#160;&#160;&#160;&#160;&#160;&#160;&#160;&#160;&#160;&#160;&#160;&#160;&#160;&#160;&#160;&#160;&#160;&#160;&#160;&#160;&#160;&#160;&#160;&#160;&#160;&#160;&#160;&#160;&#160;</text>
<polygon fill="white" stroke="transparent" points="225.16,-365.02 225.16,-384.02 241.16,-384.02 241.16,-365.02 225.16,-365.02"/>
<polyline fill="none" stroke="black" points="241.16,-365.02 241.16,-384.02 "/>
<text text-anchor="start" x="228.16" y="-371.42" font-family="sans-serif" font-size="12.00">D</text>
<polygon fill="white" stroke="transparent" points="241.16,-365.02 241.16,-384.02 271.16,-384.02 271.16,-365.02 241.16,-365.02"/>
<polygon fill="none" stroke="black" points="241.16,-365.02 241.16,-384.02 271.16,-384.02 271.16,-365.02 241.16,-365.02"/>
<text text-anchor="start" x="244.16" y="-371.42" font-family="sans-serif" font-size="12.00">ACL</text>
<polygon fill="white" stroke="transparent" points="198.95,-421.4 198.95,-440.4 214.95,-440.4 214.95,-421.4 198.95,-421.4"/>
<polyline fill="none" stroke="black" points="214.95,-421.4 214.95,-440.4 "/>
<text text-anchor="start" x="201.95" y="-427.8" font-family="sans-serif" font-size="12.00">U</text>
<polygon fill="white" stroke="transparent" points="214.95,-421.4 214.95,-440.4 235.95,-440.4 235.95,-421.4 214.95,-421.4"/>
<polygon fill="none" stroke="black" points="214.95,-421.4 214.95,-440.4 235.95,-440.4 235.95,-421.4 214.95,-421.4"/>
<text text-anchor="start" x="217.95" y="-427.8" font-family="sans-serif" font-size="12.00">PL</text>
</g>
<!-- RSNotification -->
<g id="node4" class="node">
<title>RSNotification</title>
<polygon fill="none" stroke="black" stroke-width="2" points="233.91,-64.1 231.26,-61.43 228.92,-58.74 226.9,-56.03 225.2,-53.31 223.84,-50.61 222.82,-47.92 222.15,-45.26 221.83,-42.63 221.87,-40.05 222.26,-37.52 223.02,-35.06 224.14,-32.67 225.61,-30.35 227.43,-28.13 229.61,-25.99 232.12,-23.95 234.97,-22.01 238.15,-20.17 241.64,-18.45 245.43,-16.83 249.51,-15.34 253.87,-13.95 258.48,-12.69 263.34,-11.54 268.43,-10.51 273.72,-9.6 279.21,-8.8 284.86,-8.12 290.67,-7.56 296.6,-7.1 302.65,-6.75 308.78,-6.51 314.98,-6.38 321.23,-6.34 327.5,-6.4 333.77,-6.56 340.03,-6.81 346.26,-7.15 352.43,-7.57 358.52,-8.08 364.52,-8.66 370.4,-9.33 376.16,-10.06 381.78,-10.87 387.23,-11.75 392.51,-12.7 397.6,-13.71 402.49,-14.79 407.17,-15.93 411.63,-17.13 415.85,-18.39 419.83,-19.72 423.56,-21.1 427.04,-22.53 430.26,-24.03 433.21,-25.58 435.89,-27.18 438.3,-28.84 440.44,-30.55 442.3,-32.32 443.88,-34.13 445.18,-35.99 446.21,-37.91 446.97,-39.86 447.45,-41.86 447.66,-43.9 447.6,-45.98 447.28,-48.1 446.7,-50.24 445.86,-52.41 444.77,-54.6 443.42,-56.81 441.84,-59.04 440.01,-61.27 437.95,-63.49 435.66,-65.72 433.15,-67.93 430.42,-70.12 427.47,-72.28 424.32,-74.4 420.97,-76.49 417.42,-78.52 413.69,-80.49 409.77,-82.39 405.68,-84.22 401.42,-85.96 397,-87.61 392.43,-89.16 387.71,-90.6 382.86,-91.93 377.88,-93.13 372.78,-94.2 367.57,-95.13 362.27,-95.92 356.88,-96.56 351.41,-97.06 345.88,-97.39 340.3,-97.57 334.67,-97.58 329.02,-97.43 323.36,-97.11 317.7,-96.63 312.05,-95.99 306.44,-95.18 300.87,-94.21 295.37,-93.08 289.94,-91.79 284.61,-90.36 279.38,-88.78 274.29,-87.07 269.34,-85.22 264.55,-83.25 259.93,-81.17 255.51,-78.97 251.3,-76.68 247.31,-74.3 243.57,-71.84 240.07,-69.32 236.85,-66.73 233.91,-64.1"/>
<text text-anchor="middle" x="338.92" y="-45.06" font-family="sans-serif" font-size="16.00">RSNotification</text>
</g>
<!-- RSDemandsManagement&#45;&gt;RSNotification -->
<g id="edge2" class="edge">
<title>RSDemandsManagement&#45;&gt;RSNotification</title>
<path fill="none" stroke="black" stroke-width="2" d="M164.05,-432.58C121.71,-364.84 54.71,-231.03 121.92,-146.72 151.88,-109.14 199.51,-85.7 242.52,-71.32"/>
<text text-anchor="middle" x="171.42" y="-256.43" font-family="sans-serif" font-size="12.00"> &#160;&#160;&#160;&#160;&#160;&#160;&#160;&#160;&#160;&#160;&#160;&#160;&#160;&#160;&#160;&#160;&#160;&#160;&#160;&#160;&#160;&#160;&#160;&#160;&#160;&#160;&#160;&#160;&#160;&#160;&#160;&#160;&#160;&#160;&#160;&#160;&#160;&#160;&#160;</text>
<polygon fill="white" stroke="transparent" points="223.52,-61.32 223.52,-80.32 239.52,-80.32 239.52,-61.32 223.52,-61.32"/>
<polyline fill="none" stroke="black" points="239.52,-61.32 239.52,-80.32 "/>
<text text-anchor="start" x="226.52" y="-67.72" font-family="sans-serif" font-size="12.00">D</text>
<polygon fill="white" stroke="transparent" points="239.52,-61.32 239.52,-80.32 261.52,-80.32 261.52,-61.32 239.52,-61.32"/>
<polygon fill="none" stroke="black" points="239.52,-61.32 239.52,-80.32 261.52,-80.32 261.52,-61.32 239.52,-61.32"/>
<text text-anchor="start" x="242.52" y="-67.72" font-family="sans-serif" font-size="12.00">CF</text>
<polygon fill="white" stroke="transparent" points="146.05,-422.58 146.05,-441.58 162.05,-441.58 162.05,-422.58 146.05,-422.58"/>
<polyline fill="none" stroke="black" points="162.05,-422.58 162.05,-441.58 "/>
<text text-anchor="start" x="149.05" y="-428.98" font-family="sans-serif" font-size="12.00">U</text>
<polygon fill="white" stroke="transparent" points="162.05,-422.58 162.05,-441.58 183.05,-441.58 183.05,-422.58 162.05,-422.58"/>
<polygon fill="none" stroke="black" points="162.05,-422.58 162.05,-441.58 183.05,-441.58 183.05,-422.58 162.05,-422.58"/>
<text text-anchor="start" x="165.05" y="-428.98" font-family="sans-serif" font-size="12.00">PL</text>
</g>
<!-- RSReservation -->
<g id="node3" class="node">
<title>RSReservation</title>
<polygon fill="none" stroke="black" stroke-width="2" points="262.63,-234.89 255.16,-235.1 247.71,-235.19 240.32,-235.15 233.02,-235 225.83,-234.71 218.79,-234.3 211.92,-233.77 205.24,-233.12 198.79,-232.35 192.59,-231.45 186.64,-230.44 180.99,-229.32 175.63,-228.09 170.6,-226.74 165.9,-225.3 161.54,-223.75 157.53,-222.1 153.89,-220.37 150.61,-218.55 147.71,-216.65 145.18,-214.67 143.02,-212.62 141.23,-210.51 139.82,-208.35 138.76,-206.13 138.06,-203.87 137.71,-201.57 137.7,-199.24 138.02,-196.89 138.66,-194.52 139.6,-192.14 140.83,-189.76 142.35,-187.39 144.13,-185.02 146.17,-182.68 148.44,-180.37 150.94,-178.08 153.65,-175.84 156.56,-173.64 159.65,-171.5 162.91,-169.41 166.33,-167.39 169.91,-165.44 173.61,-163.56 177.45,-161.77 181.4,-160.06 185.47,-158.44 189.63,-156.92 193.89,-155.49 198.23,-154.17 202.66,-152.95 207.16,-151.84 211.73,-150.84 216.37,-149.95 221.08,-149.18 225.85,-148.53 230.67,-147.99 235.54,-147.57 240.47,-147.27 245.44,-147.09 250.46,-147.03 255.52,-147.09 260.62,-147.26 265.74,-147.55 270.9,-147.96 276.07,-148.48 281.26,-149.11 286.46,-149.86 291.65,-150.71 296.84,-151.66 302,-152.72 307.14,-153.88 312.23,-155.13 317.26,-156.47 322.23,-157.9 327.11,-159.42 331.89,-161.01 336.55,-162.69 341.09,-164.43 345.47,-166.24 349.68,-168.12 353.7,-170.05 357.52,-172.04 361.12,-174.07 364.47,-176.15 367.56,-178.27 370.36,-180.41 372.87,-182.59 375.07,-184.79 376.93,-187.01 378.45,-189.23 379.6,-191.47 380.38,-193.7 380.77,-195.93 380.77,-198.15 380.36,-200.35 379.55,-202.54 378.31,-204.69 376.66,-206.81 374.59,-208.89 372.11,-210.93 369.21,-212.92 365.9,-214.86 362.19,-216.73 358.09,-218.54 353.61,-220.28 348.78,-221.95 343.59,-223.53 338.08,-225.04 332.25,-226.45 326.15,-227.77 319.78,-228.99 313.17,-230.12 306.35,-231.14 299.35,-232.05 292.2,-232.85 284.92,-233.53 277.54,-234.11 270.11,-234.56 262.63,-234.89"/>
<text text-anchor="middle" x="255.92" y="-187.08" font-family="sans-serif" font-size="16.00">RSReservation</text>
</g>
<!-- RSMatching&#45;&gt;RSReservation -->
<g id="edge3" class="edge">
<title>RSMatching&#45;&gt;RSReservation</title>
<path fill="none" stroke="black" stroke-width="2" d="M259.7,-284.59C258.57,-278.38 257.59,-272.07 256.92,-266.03 255.8,-256.05 255.27,-245.27 255.07,-235.1"/>
<text text-anchor="middle" x="332.42" y="-256.43" font-family="sans-serif" font-size="12.00"> &#160;&#160;&#160;&#160;&#160;&#160;&#160;&#160;&#160;&#160;&#160;&#160;&#160;&#160;&#160;&#160;&#160;&#160;&#160;&#160;&#160;&#160;&#160;&#160;&#160;&#160;&#160;&#160;&#160;&#160;&#160;&#160;&#160;&#160;&#160;&#160;&#160;&#160;&#160;</text>
<polygon fill="white" stroke="transparent" points="232.07,-225.1 232.07,-244.1 248.07,-244.1 248.07,-225.1 232.07,-225.1"/>
<polyline fill="none" stroke="black" points="248.07,-225.1 248.07,-244.1 "/>
<text text-anchor="start" x="235.07" y="-231.5" font-family="sans-serif" font-size="12.00">D</text>
<polygon fill="white" stroke="transparent" points="248.07,-225.1 248.07,-244.1 278.07,-244.1 278.07,-225.1 248.07,-225.1"/>
<polygon fill="none" stroke="black" points="248.07,-225.1 248.07,-244.1 278.07,-244.1 278.07,-225.1 248.07,-225.1"/>
<text text-anchor="start" x="251.07" y="-231.5" font-family="sans-serif" font-size="12.00">ACL</text>
<polygon fill="white" stroke="transparent" points="241.7,-274.59 241.7,-293.59 257.7,-293.59 257.7,-274.59 241.7,-274.59"/>
<polyline fill="none" stroke="black" points="257.7,-274.59 257.7,-293.59 "/>
<text text-anchor="start" x="244.7" y="-280.99" font-family="sans-serif" font-size="12.00">U</text>
<polygon fill="white" stroke="transparent" points="257.7,-274.59 257.7,-293.59 278.7,-293.59 278.7,-274.59 257.7,-274.59"/>
<polygon fill="none" stroke="black" points="257.7,-274.59 257.7,-293.59 278.7,-293.59 278.7,-274.59 257.7,-274.59"/>
<text text-anchor="start" x="260.7" y="-280.99" font-family="sans-serif" font-size="12.00">PL</text>
</g>
<!-- RSMatching&#45;&gt;RSNotification -->
<g id="edge4" class="edge">
<title>RSMatching&#45;&gt;RSNotification</title>
<path fill="none" stroke="black" stroke-width="2" d="M352.36,-310.42C374.13,-300.56 395.13,-286.36 407.92,-266.03 443.48,-209.48 434.2,-177.14 407.92,-115.72 403.88,-106.28 397.75,-97.55 390.78,-89.74"/>
<text text-anchor="middle" x="507.42" y="-187.78" font-family="sans-serif" font-size="12.00"> &#160;&#160;&#160;&#160;&#160;&#160;&#160;&#160;&#160;&#160;&#160;&#160;&#160;&#160;&#160;&#160;&#160;&#160;&#160;&#160;&#160;&#160;&#160;&#160;&#160;&#160;&#160;&#160;&#160;&#160;&#160;&#160;&#160;&#160;&#160;&#160;&#160;&#160;&#160;</text>
<polygon fill="white" stroke="transparent" points="371.78,-79.74 371.78,-98.74 387.78,-98.74 387.78,-79.74 371.78,-79.74"/>
<polyline fill="none" stroke="black" points="387.78,-79.74 387.78,-98.74 "/>
<text text-anchor="start" x="374.78" y="-86.14" font-family="sans-serif" font-size="12.00">D</text>
<polygon fill="white" stroke="transparent" points="387.78,-79.74 387.78,-98.74 409.78,-98.74 409.78,-79.74 387.78,-79.74"/>
<polygon fill="none" stroke="black" points="387.78,-79.74 387.78,-98.74 409.78,-98.74 409.78,-79.74 387.78,-79.74"/>
<text text-anchor="start" x="390.78" y="-86.14" font-family="sans-serif" font-size="12.00">CF</text>
<polygon fill="white" stroke="transparent" points="334.36,-300.42 334.36,-319.42 350.36,-319.42 350.36,-300.42 334.36,-300.42"/>
<polyline fill="none" stroke="black" points="350.36,-300.42 350.36,-319.42 "/>
<text text-anchor="start" x="337.36" y="-306.82" font-family="sans-serif" font-size="12.00">U</text>
<polygon fill="white" stroke="transparent" points="350.36,-300.42 350.36,-319.42 371.36,-319.42 371.36,-300.42 350.36,-300.42"/>
<polygon fill="none" stroke="black" points="350.36,-300.42 350.36,-319.42 371.36,-319.42 371.36,-300.42 350.36,-300.42"/>
<text text-anchor="start" x="353.36" y="-306.82" font-family="sans-serif" font-size="12.00">PL</text>
</g>
<!-- RSReservation&#45;&gt;RSNotification -->
<g id="edge5" class="edge">
<title>RSReservation&#45;&gt;RSNotification</title>
<path fill="none" stroke="black" stroke-width="2" d="M250.26,-146.82C250.52,-136.23 252.29,-125.21 256.92,-115.72 261.88,-105.54 269.25,-96.44 277.57,-88.47"/>
<text text-anchor="middle" x="332.42" y="-119.12" font-family="sans-serif" font-size="12.00"> &#160;&#160;&#160;&#160;&#160;&#160;&#160;&#160;&#160;&#160;&#160;&#160;&#160;&#160;&#160;&#160;&#160;&#160;&#160;&#160;&#160;&#160;&#160;&#160;&#160;&#160;&#160;&#160;&#160;&#160;&#160;&#160;&#160;&#160;&#160;&#160;&#160;&#160;&#160;</text>
<polygon fill="white" stroke="transparent" points="258.57,-78.47 258.57,-97.47 274.57,-97.47 274.57,-78.47 258.57,-78.47"/>
<polyline fill="none" stroke="black" points="274.57,-78.47 274.57,-97.47 "/>
<text text-anchor="start" x="261.57" y="-84.87" font-family="sans-serif" font-size="12.00">D</text>
<polygon fill="white" stroke="transparent" points="274.57,-78.47 274.57,-97.47 296.57,-97.47 296.57,-78.47 274.57,-78.47"/>
<polygon fill="none" stroke="black" points="274.57,-78.47 274.57,-97.47 296.57,-97.47 296.57,-78.47 274.57,-78.47"/>
<text text-anchor="start" x="277.57" y="-84.87" font-family="sans-serif" font-size="12.00">CF</text>
<polygon fill="white" stroke="transparent" points="232.26,-136.82 232.26,-155.82 248.26,-155.82 248.26,-136.82 232.26,-136.82"/>
<polyline fill="none" stroke="black" points="248.26,-136.82 248.26,-155.82 "/>
<text text-anchor="start" x="235.26" y="-143.22" font-family="sans-serif" font-size="12.00">U</text>
<polygon fill="white" stroke="transparent" points="248.26,-136.82 248.26,-155.82 269.26,-155.82 269.26,-136.82 248.26,-136.82"/>
<polygon fill="none" stroke="black" points="248.26,-136.82 248.26,-155.82 269.26,-155.82 269.26,-136.82 248.26,-136.82"/>
<text text-anchor="start" x="251.26" y="-143.22" font-family="sans-serif" font-size="12.00">PL</text>
</g>
<!-- RSOffersManagement -->
<g id="node5" class="node">
<title>RSOffersManagement</title>
<polygon fill="none" stroke="black" stroke-width="2" points="632.01,-590.11 638.62,-592.31 644.85,-594.57 650.68,-596.89 656.08,-599.25 661.03,-601.65 665.51,-604.08 669.5,-606.52 672.97,-608.98 675.93,-611.43 678.34,-613.89 680.21,-616.32 681.52,-618.74 682.26,-621.13 682.44,-623.48 682.06,-625.79 681.11,-628.05 679.6,-630.26 677.53,-632.41 674.93,-634.5 671.79,-636.52 668.14,-638.46 663.99,-640.33 659.36,-642.13 654.27,-643.84 648.75,-645.47 642.81,-647.02 636.48,-648.47 629.8,-649.85 622.78,-651.13 615.47,-652.32 607.88,-653.42 600.05,-654.44 592.01,-655.36 583.79,-656.19 575.43,-656.94 566.95,-657.59 558.38,-658.16 549.76,-658.63 541.11,-659.02 532.47,-659.32 523.85,-659.53 515.3,-659.65 506.83,-659.69 498.46,-659.64 490.23,-659.5 482.14,-659.28 474.23,-658.96 466.51,-658.57 459,-658.08 451.71,-657.51 444.66,-656.85 437.85,-656.1 431.31,-655.27 425.04,-654.35 419.05,-653.34 413.34,-652.25 407.93,-651.06 402.81,-649.8 398,-648.44 393.49,-647 389.29,-645.48 385.39,-643.88 381.81,-642.19 378.53,-640.43 375.57,-638.59 372.91,-636.67 370.57,-634.69 368.53,-632.64 366.81,-630.53 365.39,-628.36 364.28,-626.13 363.49,-623.86 363,-621.55 362.82,-619.19 362.95,-616.81 363.39,-614.4 364.14,-611.98 365.2,-609.55 366.58,-607.12 368.27,-604.7 370.28,-602.29 372.6,-599.9 375.25,-597.55 378.21,-595.24 381.49,-592.98 385.1,-590.78 389.02,-588.64 393.26,-586.59 397.82,-584.61 402.7,-582.73 407.88,-580.95 413.38,-579.28 419.17,-577.73 425.26,-576.3 431.64,-575 438.3,-573.83 445.22,-572.8 452.4,-571.92 459.82,-571.19 467.46,-570.61 475.32,-570.18 483.36,-569.92 491.58,-569.81 499.94,-569.86 508.44,-570.07 517.03,-570.44 525.7,-570.96 534.42,-571.64 543.16,-572.47 551.89,-573.45 560.59,-574.57 569.21,-575.83 577.74,-577.22 586.14,-578.74 594.38,-580.38 602.42,-582.13 610.23,-583.99 617.79,-585.95 625.06,-587.99 632.01,-590.11"/>
<text text-anchor="middle" x="510.92" y="-614.24" font-family="sans-serif" font-size="16.00">RSOffersManagement</text>
</g>
<!-- RSOffersManagement&#45;&gt;RSDemandsManagement -->
<g id="edge6" class="edge">
<title>RSOffersManagement&#45;&gt;RSDemandsManagement</title>
<path fill="none" stroke="black" stroke-width="2" d="M401.79,-582.86C375.89,-573.71 348.63,-563.19 323.92,-551.93 301.26,-541.59 277.37,-528.59 256.3,-516.32"/>
<text text-anchor="middle" x="365.92" y="-542.33" font-family="sans-serif" font-size="12.00">Shared Kernel</text>
</g>
<!-- RSOffersManagement&#45;&gt;RSMatching -->
<g id="edge9" class="edge">
<title>RSOffersManagement&#45;&gt;RSMatching</title>
<path fill="none" stroke="black" stroke-width="2" d="M469.77,-570.14C457.84,-555.08 445.47,-537.89 435.92,-520.93 407.66,-470.73 427.64,-443.29 389.92,-399.75 376.93,-384.77 359.65,-372.52 342.3,-362.84"/>
<text text-anchor="middle" x="511.42" y="-472.74" font-family="sans-serif" font-size="12.00"> &#160;&#160;&#160;&#160;&#160;&#160;&#160;&#160;&#160;&#160;&#160;&#160;&#160;&#160;&#160;&#160;&#160;&#160;&#160;&#160;&#160;&#160;&#160;&#160;&#160;&#160;&#160;&#160;&#160;&#160;&#160;&#160;&#160;&#160;&#160;&#160;&#160;&#160;&#160;</text>
<polygon fill="white" stroke="transparent" points="319.3,-352.84 319.3,-371.84 335.3,-371.84 335.3,-352.84 319.3,-352.84"/>
<polyline fill="none" stroke="black" points="335.3,-352.84 335.3,-371.84 "/>
<text text-anchor="start" x="322.3" y="-359.24" font-family="sans-serif" font-size="12.00">D</text>
<polygon fill="white" stroke="transparent" points="335.3,-352.84 335.3,-371.84 365.3,-371.84 365.3,-352.84 335.3,-352.84"/>
<polygon fill="none" stroke="black" points="335.3,-352.84 335.3,-371.84 365.3,-371.84 365.3,-352.84 335.3,-352.84"/>
<text text-anchor="start" x="338.3" y="-359.24" font-family="sans-serif" font-size="12.00">ACL</text>
<polygon fill="white" stroke="transparent" points="451.77,-560.14 451.77,-579.14 467.77,-579.14 467.77,-560.14 451.77,-560.14"/>
<polyline fill="none" stroke="black" points="467.77,-560.14 467.77,-579.14 "/>
<text text-anchor="start" x="454.77" y="-566.54" font-family="sans-serif" font-size="12.00">U</text>
<polygon fill="white" stroke="transparent" points="467.77,-560.14 467.77,-579.14 488.77,-579.14 488.77,-560.14 467.77,-560.14"/>
<polygon fill="none" stroke="black" points="467.77,-560.14 467.77,-579.14 488.77,-579.14 488.77,-560.14 467.77,-560.14"/>
<text text-anchor="start" x="470.77" y="-566.54" font-family="sans-serif" font-size="12.00">PL</text>
</g>
<!-- RSOffersManagement&#45;&gt;RSNotification -->
<g id="edge8" class="edge">
<title>RSOffersManagement&#45;&gt;RSNotification</title>
<path fill="none" stroke="black" stroke-width="2" d="M556.71,-573.8C578.94,-548.09 600.92,-513.43 600.92,-476.84 600.92,-476.84 600.92,-476.84 600.92,-189.88 600.92,-113.29 512.76,-78.44 438.71,-62.68"/>
<text text-anchor="middle" x="676.42" y="-329.79" font-family="sans-serif" font-size="12.00"> &#160;&#160;&#160;&#160;&#160;&#160;&#160;&#160;&#160;&#160;&#160;&#160;&#160;&#160;&#160;&#160;&#160;&#160;&#160;&#160;&#160;&#160;&#160;&#160;&#160;&#160;&#160;&#160;&#160;&#160;&#160;&#160;&#160;&#160;&#160;&#160;&#160;&#160;&#160;</text>
<polygon fill="white" stroke="transparent" points="419.71,-52.68 419.71,-71.68 435.71,-71.68 435.71,-52.68 419.71,-52.68"/>
<polyline fill="none" stroke="black" points="435.71,-52.68 435.71,-71.68 "/>
<text text-anchor="start" x="422.71" y="-59.08" font-family="sans-serif" font-size="12.00">D</text>
<polygon fill="white" stroke="transparent" points="435.71,-52.68 435.71,-71.68 457.71,-71.68 457.71,-52.68 435.71,-52.68"/>
<polygon fill="none" stroke="black" points="435.71,-52.68 435.71,-71.68 457.71,-71.68 457.71,-52.68 435.71,-52.68"/>
<text text-anchor="start" x="438.71" y="-59.08" font-family="sans-serif" font-size="12.00">CF</text>
<polygon fill="white" stroke="transparent" points="538.71,-563.8 538.71,-582.8 554.71,-582.8 554.71,-563.8 538.71,-563.8"/>
<polyline fill="none" stroke="black" points="554.71,-563.8 554.71,-582.8 "/>
<text text-anchor="start" x="541.71" y="-570.2" font-family="sans-serif" font-size="12.00">U</text>
<polygon fill="white" stroke="transparent" points="554.71,-563.8 554.71,-582.8 575.71,-582.8 575.71,-563.8 554.71,-563.8"/>
<polygon fill="none" stroke="black" points="554.71,-563.8 554.71,-582.8 575.71,-582.8 575.71,-563.8 554.71,-563.8"/>
<text text-anchor="start" x="557.71" y="-570.2" font-family="sans-serif" font-size="12.00">PL</text>
</g>
<!-- RSOffersPricing -->
<g id="node6" class="node">
<title>RSOffersPricing</title>
<polygon fill="none" stroke="black" stroke-width="2" points="711.74,-515.85 704.54,-514.69 697.53,-513.42 690.73,-512.06 684.17,-510.61 677.88,-509.06 671.88,-507.43 666.19,-505.73 660.85,-503.95 655.87,-502.11 651.26,-500.2 647.05,-498.24 643.25,-496.23 639.88,-494.18 636.94,-492.09 634.44,-489.97 632.38,-487.82 630.78,-485.65 629.63,-483.46 628.93,-481.27 628.68,-479.07 628.86,-476.87 629.49,-474.67 630.54,-472.49 632,-470.33 633.87,-468.18 636.12,-466.06 638.74,-463.97 641.71,-461.92 645.02,-459.9 648.65,-457.93 652.57,-456 656.76,-454.13 661.21,-452.31 665.88,-450.55 670.77,-448.85 675.84,-447.22 681.08,-445.65 686.47,-444.16 691.98,-442.75 697.59,-441.42 703.28,-440.17 709.04,-439 714.85,-437.92 720.69,-436.94 726.54,-436.05 732.39,-435.25 738.23,-434.56 744.04,-433.97 749.81,-433.48 755.53,-433.09 761.19,-432.82 766.78,-432.65 772.3,-432.59 777.73,-432.65 783.08,-432.81 788.33,-433.09 793.49,-433.49 798.54,-434 803.49,-434.62 808.33,-435.36 813.05,-436.21 817.66,-437.17 822.16,-438.24 826.53,-439.42 830.78,-440.71 834.91,-442.1 838.9,-443.59 842.77,-445.18 846.49,-446.87 850.07,-448.64 853.5,-450.51 856.77,-452.45 859.88,-454.47 862.82,-456.56 865.59,-458.72 868.17,-460.93 870.55,-463.2 872.73,-465.51 874.69,-467.87 876.42,-470.26 877.92,-472.67 879.17,-475.1 880.17,-477.53 880.89,-479.97 881.33,-482.41 881.48,-484.83 881.32,-487.23 880.86,-489.6 880.07,-491.94 878.96,-494.23 877.5,-496.46 875.71,-498.64 873.57,-500.75 871.08,-502.79 868.23,-504.74 865.03,-506.61 861.48,-508.39 857.58,-510.06 853.33,-511.63 848.75,-513.1 843.83,-514.45 838.59,-515.68 833.05,-516.79 827.21,-517.77 821.1,-518.63 814.72,-519.36 808.1,-519.96 801.27,-520.42 794.24,-520.75 787.03,-520.95 779.69,-521.01 772.22,-520.94 764.66,-520.74 757.04,-520.41 749.39,-519.96 741.74,-519.37 734.11,-518.67 726.55,-517.84 719.08,-516.9 711.74,-515.85"/>
<text text-anchor="middle" x="761.92" y="-472.04" font-family="sans-serif" font-size="16.00">RSOffersPricing</text>
</g>
<!-- RSOffersManagement&#45;&gt;RSOffersPricing -->
<g id="edge7" class="edge">
<title>RSOffersManagement&#45;&gt;RSOffersPricing</title>
<path fill="none" stroke="black" stroke-width="2" d="M581.17,-577.8C617.28,-557.63 661.02,-533.2 696.42,-513.42"/>
<text text-anchor="middle" x="720.42" y="-542.33" font-family="sans-serif" font-size="12.00"> &#160;&#160;&#160;&#160;&#160;&#160;&#160;&#160;&#160;&#160;&#160;&#160;&#160;&#160;&#160;&#160;&#160;&#160;&#160;&#160;&#160;&#160;&#160;&#160;&#160;&#160;&#160;&#160;&#160;&#160;&#160;&#160;&#160;&#160;&#160;&#160;&#160;&#160;&#160;</text>
<polygon fill="white" stroke="transparent" points="677.42,-503.42 677.42,-522.42 693.42,-522.42 693.42,-503.42 677.42,-503.42"/>
<polyline fill="none" stroke="black" points="693.42,-503.42 693.42,-522.42 "/>
<text text-anchor="start" x="680.42" y="-509.82" font-family="sans-serif" font-size="12.00">D</text>
<polygon fill="white" stroke="transparent" points="693.42,-503.42 693.42,-522.42 715.42,-522.42 715.42,-503.42 693.42,-503.42"/>
<polygon fill="none" stroke="black" points="693.42,-503.42 693.42,-522.42 715.42,-522.42 715.42,-503.42 693.42,-503.42"/>
<text text-anchor="start" x="696.42" y="-509.82" font-family="sans-serif" font-size="12.00">CF</text>
<polygon fill="white" stroke="transparent" points="563.17,-567.8 563.17,-586.8 579.17,-586.8 579.17,-567.8 563.17,-567.8"/>
<polyline fill="none" stroke="black" points="579.17,-567.8 579.17,-586.8 "/>
<text text-anchor="start" x="566.17" y="-574.2" font-family="sans-serif" font-size="12.00">U</text>
<polygon fill="white" stroke="transparent" points="579.17,-567.8 579.17,-586.8 600.17,-586.8 600.17,-567.8 579.17,-567.8"/>
<polygon fill="none" stroke="black" points="579.17,-567.8 579.17,-586.8 600.17,-586.8 600.17,-567.8 579.17,-567.8"/>
<text text-anchor="start" x="582.17" y="-574.2" font-family="sans-serif" font-size="12.00">PL</text>
</g>
</g>
</svg>
